<?xml version="1.0" standalone="no"?>
<!DOCTYPE svg PUBLIC "-//W3C//DTD SVG 20010904//EN"
 "http://www.w3.org/TR/2001/REC-SVG-20010904/DTD/svg10.dtd">
<svg version="1.0" xmlns="http://www.w3.org/2000/svg"
 width="700.000000pt" height="700.000000pt" viewBox="0 0 700.000000 700.000000"
 preserveAspectRatio="xMidYMid meet">
<metadata>
Created by potrace 1.11, written by Peter Selinger 2001-2013
</metadata>
<g transform="translate(0.000000,700.000000) scale(0.100000,-0.100000)"
fill="#000000" stroke="none">
<path d="M4 6806 c1 -107 4 -197 8 -201 4 -4 28 -9 55 -11 26 -2 80 -9 118
-14 39 -6 86 -12 105 -15 147 -18 345 -66 466 -110 221 -83 301 -156 362 -334
14 -41 16 -312 17 -2665 2 -2183 0 -2631 -11 -2685 -19 -91 -60 -166 -117
-216 -67 -58 -199 -122 -292 -140 -184 -36 -258 -48 -395 -60 -36 -3 -78 -8
-95 -10 -16 -2 -70 -7 -120 -11 -50 -3 -93 -8 -98 -11 -4 -2 -7 -76 -7 -164
l0 -159 2494 0 c2249 0 2501 2 2563 16 37 9 79 18 93 20 116 21 430 119 593
186 346 141 609 309 832 533 173 172 281 325 357 505 69 164 68 152 68 598 l0
403 -26 77 c-71 213 -182 382 -384 583 -160 158 -335 278 -595 407 -156 78
-245 112 -505 197 -56 18 -172 48 -315 81 -148 35 -133 32 -280 59 -176 33
-172 32 -251 40 -92 10 -109 20 -46 29 111 15 544 132 647 176 11 4 67 27 125
50 58 23 116 48 130 55 14 8 63 32 109 55 543 269 861 650 945 1132 18 106 18
370 0 473 -45 258 -163 475 -365 672 -167 163 -343 274 -619 391 -88 37 -314
116 -364 127 -11 2 -55 13 -96 23 -89 23 -356 71 -430 77 -65 5 -178 18 -200
23 -14 3 -1027 7 -2251 9 l-2226 4 1 -195z m3751 -259 c22 -4 65 -9 95 -12 52
-6 74 -9 145 -21 599 -99 971 -448 1041 -979 14 -109 8 -411 -11 -507 -3 -16
-7 -40 -10 -55 -3 -16 -8 -37 -9 -48 -9 -49 -59 -202 -86 -262 -63 -138 -218
-332 -343 -429 -70 -53 -206 -132 -295 -169 -85 -36 -291 -100 -355 -110 -18
-3 -43 -8 -57 -10 -49 -10 -66 -13 -112 -19 -79 -10 -130 -16 -183 -22 -27 -3
-283 -8 -567 -10 l-518 -4 0 1319 c0 726 4 1322 8 1325 5 3 159 8 342 11 184
3 336 7 337 9 5 5 538 -2 578 -7z m50 -3121 c428 -32 765 -127 1030 -289 328
-201 543 -483 620 -812 43 -186 39 -477 -10 -732 -63 -322 -196 -578 -402
-771 -117 -110 -141 -128 -233 -184 -199 -120 -484 -215 -725 -243 -33 -4 -69
-9 -80 -11 -45 -9 -229 -17 -365 -18 -179 0 -318 9 -435 29 -117 19 -127 21
-194 40 -307 88 -472 230 -510 441 -7 40 -10 459 -8 1299 l2 1240 25 2 c14 1
162 4 330 8 168 4 306 7 307 8 5 5 571 -1 648 -7z"/>
</g>
</svg>
